HIERARCHY
ROOT pelvis
{
  OFFSET 0 100 0
  CHANNELS 6 Xposition Yposition Zposition Zrotation Xrotation Yrotation
  JOINT pelvis_right_femur
  {
    OFFSET -10.78128 -3.44521 -0.5502486
    CHANNELS 3 Zrotation Xrotation Yrotation
    JOINT right_femur_tibia
    {
      OFFSET -0.8047443 -44.0398 -0.1307829
      CHANNELS 3 Zrotation Xrotation Yrotation
      JOINT right_tibia_foot
      {
        OFFSET 3.006224 -47.83518 -5
        CHANNELS 3 Zrotation Xrotation Yrotation
        End Site
        {
          OFFSET 0 -5 15
        }
      }
    }
  }
  JOINT pelvis_left_femur
  {
    OFFSET 10.78128 -3.44521 -0.5502486
    CHANNELS 3 Zrotation Xrotation Yrotation
    JOINT left_femur_tibia
    {
      OFFSET 0.8047443 -44.0398 -0.1307829
      CHANNELS 3 Zrotation Xrotation Yrotation
      JOINT left_tibia_foot
      {
        OFFSET -4.370144 -48.10324 -4.275266
        CHANNELS 3 Zrotation Xrotation Yrotation
        End Site
        {
          OFFSET 0 -5 15
        }
      }
    }
  }
  JOINT pelvis_spine1
  {
    OFFSET 0 6.468898 -3.129235
    CHANNELS 3 Zrotation Xrotation Yrotation
    JOINT spine1
    {
      OFFSET 0 23.15396 4.99043
      CHANNELS 3 Zrotation Xrotation Yrotation
      JOINT spine2
      {
        OFFSET 0 20.79997 -5.064912
        CHANNELS 3 Zrotation Xrotation Yrotation
        JOINT neck
        {
          OFFSET 0 14.38658 9.616178
          CHANNELS 3 Zrotation Xrotation Yrotation
          End Site
          {
            OFFSET 0 20 0
          }
        }
      }
      JOINT right_manubrium
      {
        OFFSET -5.722621 16.35077 3.967754
        CHANNELS 3 Zrotation Xrotation Yrotation
        JOINT right_clavicle
        {
          OFFSET -13.16364 1.694482 -4.693211
          CHANNELS 3 Zrotation Xrotation Yrotation
          JOINT right_humerus
          {
            OFFSET -28.5034 -0.3100689 -2.792744
            CHANNELS 3 Zrotation Xrotation Yrotation
            JOINT right_radius
            {
              OFFSET -25.15693 0.02248979 -1.271978
              CHANNELS 3 Zrotation Xrotation Yrotation
              End Site
              {
                OFFSET -15 0 0
              }
            }
          }
        }
      }
      JOINT left_manubrium
      {
        OFFSET 5.722621 16.35077 3.967754
        CHANNELS 3 Zrotation Xrotation Yrotation
        JOINT left_clavicle
        {
          OFFSET 13.16364 1.694482 -4.693211
          CHANNELS 3 Zrotation Xrotation Yrotation
          JOINT left_humerus
          {
            OFFSET 29.39168 -1.063119 -2.237045
            CHANNELS 3 Zrotation Xrotation Yrotation
            JOINT left_radius
            {
              OFFSET 24.59957 -0.9528479 0.9047498
              CHANNELS 3 Zrotation Xrotation Yrotation
              End Site
              {
                OFFSET 15 -0 -0
              }
            }
          }
        }
      }
    }
  }
}
MOTION
Frames: 10
Frame Time: 0.0416666666667
22.69116 101.5136 244.4699 2.296833 -8.414262 1.286788 -0.4565021 13.52944 5.713622 -2.306411e-06 38.35381 3.797724e-06 2.797131 -11.73694 -4.55864 -3.408205 -14.28942 -9.155914 8.932371e-07 20.0166 -6.299828e-06 -6.447126 -10.13908 19.64113 -3.244652 0.3740661 6.310775 -0.5761942 8.77481 -3.555958 1.837287 23.57461 6.084523 2.023894 -16.79844 7.98899 2.577739 -19.28248 10.7153 82.97579 26.88636 -8.553248 6.436047e-08 -2.289552e-07 21.13915 -25.30984 12.83039 14.76338 3.578212 -13.93273 -2.570286 -94.31306 27.29485 23.39098 1.661521e-08 8.668859e-07 -8.555257 -5.405231 6.03937 19.44231
23.64748 102.0705 250.2744 2.446734 -8.648203 1.703856 -0.8443007 11.2799 5.824575 -2.762406e-06 44.59308 3.716818e-06 2.640079 -9.046021 -5.017549 -4.460213 -10.8343 -10.33236 3.836015e-06 20.87614 -1.013372e-05 -6.267486 -10.80528 19.62623 -3.474111 0.3050721 5.778835 -0.6176707 8.78194 -3.659628 1.90407 23.71372 6.307822 2.14548 -16.88267 8.264881 2.930177 -18.43881 10.54215 83.33883 27.02343 -9.295656 1.752255e-07 1.492178e-07 19.8043 -24.68636 12.53974 14.19638 3.475185 -13.8108 -2.67944 -93.53403 27.83662 22.18924 3.653735e-07 3.048399e-07 -8.25512 -5.194297 6.21979 19.29653
24.60108 102.9405 255.938 2.606698 -8.682997 2.30807 -1.153422 7.969151 5.777936 -2.898511e-06 49.63143 3.500385e-06 2.582448 -6.641209 -5.528528 -5.427615 -6.67429 -11.47999 6.167472e-06 20.6672 -1.289281e-05 -6.013873 -11.93471 19.53824 -3.717989 0.2292452 5.168881 -0.5778287 8.728864 -3.899851 1.953754 23.82977 6.566825 2.26612 -17.02402 8.574271 3.265953 -17.5566 10.36509 83.94865 27.24802 -10.38693 2.591954e-07 4.266188e-07 18.38327 -24.00801 12.30692 13.57826 3.531166 -13.908 -2.807028 -92.60053 28.3965 20.5375 7.28771e-07 -1.615643e-07 -8.607243 -4.896429 6.462417 19.02439
25.5369 103.9721 261.4603 2.716163 -8.45332 3.049479 -1.254271 3.730824 5.540525 -2.612017e-06 52.39053 3.032915e-06 2.486514 -4.767272 -6.012575 -6.166395 -2.12911 -12.43172 7.523153e-06 19.9126 -1.401962e-05 -5.692002 -13.30094 19.28418 -3.899191 0.1394176 4.529311 -0.4258308 8.641676 -4.286891 1.9692 23.84534 6.809959 2.37459 -17.22752 8.841212 3.535977 -16.68509 10.2042 84.63825 27.53307 -11.80709 3.095133e-07 5.802322e-07 16.85426 -23.17849 12.13377 12.85256 3.731107 -14.28882 -2.955836 -91.35095 28.83484 18.47552 1.028178e-06 -5.057221e-07 -9.721272 -4.432998 6.806233 18.49369
26.45667 104.9364 266.8726 2.767035 -8.022 3.87206 -1.197556 -0.7566908 5.090215 -1.784967e-06 52.30151 2.234295e-06 2.360509 -3.717719 -6.387072 -6.570222 2.063126 -13.04224 7.544101e-06 18.09631 -1.31338e-05 -5.30823 -14.7894 18.92588 -3.998149 0.05410616 3.946397 -0.1993223 8.518962 -4.746635 1.951486 23.75495 6.985669 2.438476 -17.42767 9.016459 3.621862 -16.01001 10.07024 85.28518 27.71033 -13.25194 2.85407e-07 5.649347e-07 15.53196 -22.41943 12.01898 12.19244 4.068312 -14.89658 -3.128668 -89.92787 29.00163 16.29476 1.257058e-06 -6.367869e-07 -11.40833 -3.862198 7.207101 17.73997
27.35197 105.6171 272.2471 2.758054 -7.478022 4.716269 -1.005897 -5.392356 4.458659 -6.126163e-07 49.27714 1.32171e-06 2.302705 -3.525428 -6.732966 -6.654017 5.840744 -13.23211 6.355207e-06 15.67455 -1.021733e-05 -5.020342 -16.33495 18.40699 -4.001421 0.006697951 3.428366 0.0876368 8.3592 -5.268071 1.913824 23.59269 7.083345 2.444764 -17.55802 9.097997 3.506793 -15.48254 9.968472 85.98821 27.71512 -14.76098 1.765377e-07 3.81367e-07 14.38553 -21.86262 12.03094 11.64068 4.536415 -15.72174 -3.336538 -88.36151 28.89146 13.90907 1.431533e-06 -5.457218e-07 -13.72352 -3.260501 7.558415 16.85113
28.20684 105.8847 277.6306 2.67653 -6.869484 5.523931 -0.6927298 -10.00469 3.722997 5.581302e-07 43.98667 5.620872e-07 2.221685 -3.940391 -7.035702 -6.505655 9.193594 -13.07978 4.497731e-06 13.31756 -5.977193e-06 -4.835962 -17.76583 17.72259 -3.902515 -0.01566931 2.973678 0.4196284 8.193596 -5.824155 1.859423 23.35522 7.10245 2.407083 -17.63053 9.080845 3.238417 -15.05442 9.896854 86.64452 27.57506 -16.2919 1.059441e-08 9.335109e-08 13.31395 -21.40505 12.12678 11.13068 5.065416 -16.70327 -3.569623 -86.64597 28.50861 11.4213 1.553679e-06 -3.115909e-07 -16.4579 -2.610225 7.874316 15.82425
29.0075 105.6748 283.1077 2.563973 -6.339311 6.257744 -0.3075155 -14.28199 2.998257 1.534626e-06 37.30716 1.352845e-07 2.243028 -4.83427 -7.38783 -6.206087 12.02488 -12.60498 2.29605e-06 11.71783 -9.21854e-07 -4.917046 -18.99091 16.91439 -3.726273 0.01536436 2.606802 0.7578922 8.048165 -6.380399 1.808555 23.15714 7.069234 2.336499 -17.62877 9.011662 2.877122 -14.6946 9.878933 87.53278 27.3032 -17.88615 -1.919427e-07 -2.546825e-07 12.33995 -21.21144 12.3754 10.74094 5.611642 -17.77297 -3.820294 -85.15791 27.97587 8.97537 1.646853e-06 1.994469e-08 -19.4556 -2.053072 8.052539 14.88562
29.74125 105.0379 288.6412 2.388853 -5.783537 6.885255 0.13776 -18.12293 2.353157 2.261128e-06 30.40881 -7.222541e-08 2.080811 -5.768187 -7.613917 -5.872402 14.40536 -12.08807 2.29042e-07 10.80138 3.8937e-06 -4.969124 -19.8791 16.07192 -3.494783 0.02165122 2.301031 1.097034 7.936776 -6.89584 1.743639 22.87669 6.991706 2.266278 -17.64037 8.873626 2.520781 -14.38124 9.871033 88.06643 27.05813 -19.29518 -3.759838e-07 -5.723483e-07 11.37095 -20.85167 12.56328 10.27926 6.07809 -18.79094 -4.03873 -83.59897 27.30877 6.799783 1.681066e-06 3.249975e-07 -22.23779 -1.431306 8.265134 13.85923
30.40166 104.0991 294.22 2.207934 -5.347003 7.413823 0.5987992 -21.25307 1.88844 2.699943e-06 24.57759 -1.244378e-07 1.821331 -6.451225 -7.796731 -5.595161 16.35165 -11.60494 -1.450244e-06 11.19072 7.820974e-06 -5.082591 -20.36256 15.27599 -3.247874 0.0203158 2.059329 1.393643 7.894099 -7.332823 1.686045 22.62992 6.905767 2.216193 -17.66813 8.723903 2.244057 -14.07172 9.88601 88.51184 26.86405 -20.55787 -5.086316e-07 -7.931823e-07 10.39392 -20.4417 12.71272 9.799205 6.40805 -19.67011 -4.229395 -82.2822 26.66924 5.02558 1.672283e-06 5.269468e-07 -24.56185 -0.8561177 8.452149 12.94123
